HIERARCHY
ROOT Hips
{
	OFFSET 0.000000 83.214638 0.000000
	CHANNELS 6 Xposition Yposition Zposition Xrotation Yrotation Zrotation
	JOINT Pelvis
	{
		OFFSET 0.000000 0.000000 0.000000
		CHANNELS 3 Xrotation Yrotation Zrotation
		JOINT LeftUpLeg
		{
			OFFSET 8.479700 -4.795502 -0.379100
			CHANNELS 3 Xrotation Yrotation Zrotation
			JOINT LeftLeg
			{
				OFFSET 0.024144 -32.555107 0.112900
				CHANNELS 3 Xrotation Yrotation Zrotation
				JOINT LeftFoot
				{
					OFFSET -0.024144 -32.638630 -3.012600
					CHANNELS 3 Xrotation Yrotation Zrotation
					JOINT LeftToeBase
					{
						OFFSET 0.970200 -13.225400 11.864200
						CHANNELS 3 Xrotation Yrotation Zrotation
						End Site
						{
							OFFSET 0.000000 12.319262 0.000000
						}
					}
					JOINT LFootTongue
					{
						OFFSET 1.142400 -1.059800 6.665200
						CHANNELS 3 Xrotation Yrotation Zrotation
						End Site
						{
							OFFSET 0.000000 12.319262 0.000000
						}
					}
				}
				JOINT LeftPantLeg
				{
					OFFSET 0.918482 -16.533964 -2.284700
					CHANNELS 3 Xrotation Yrotation Zrotation
					End Site
					{
						OFFSET 0.350399 24.744368 0.000000
					}
				}
			}
		}
		JOINT RightUpLeg
		{
			OFFSET -8.479700 -4.795502 -0.379100
			CHANNELS 3 Xrotation Yrotation Zrotation
			JOINT RightLeg
			{
				OFFSET -0.023144 -32.555092 0.112900
				CHANNELS 3 Xrotation Yrotation Zrotation
				JOINT RightFoot
				{
					OFFSET 0.023144 -32.638641 -3.012700
					CHANNELS 3 Xrotation Yrotation Zrotation
					JOINT RightToeBase
					{
						OFFSET -0.970200 -13.225400 11.864200
						CHANNELS 3 Xrotation Yrotation Zrotation
						End Site
						{
							OFFSET 0.000000 12.319244 0.000000
						}
					}
					JOINT RFootTongue
					{
						OFFSET -1.142200 -1.059800 6.665200
						CHANNELS 3 Xrotation Yrotation Zrotation
						End Site
						{
							OFFSET 0.000000 12.319243 0.000000
						}
					}
				}
				JOINT RightPantLeg
				{
					OFFSET -0.919482 -16.533978 -2.284800
					CHANNELS 3 Xrotation Yrotation Zrotation
					End Site
					{
						OFFSET -0.350400 24.744419 0.000000
					}
				}
			}
		}
	}
	JOINT Spine
	{
		OFFSET 0.000000 7.722000 1.166200
		CHANNELS 3 Xrotation Yrotation Zrotation
		JOINT Spine1
		{
			OFFSET 0.000000 12.024101 0.248800
			CHANNELS 3 Xrotation Yrotation Zrotation
			JOINT Spine2
			{
				OFFSET 0.000000 11.502998 -0.491200
				CHANNELS 3 Xrotation Yrotation Zrotation
				JOINT Neck
				{
					OFFSET 0.000000 18.430702 -3.123100
					CHANNELS 3 Xrotation Yrotation Zrotation
					JOINT Head
					{
						OFFSET 0.000000 9.051102 1.034000
						CHANNELS 3 Xrotation Yrotation Zrotation
						JOINT HairB
						{
							OFFSET 0.208400 24.786102 24.822300
							CHANNELS 3 Xrotation Yrotation Zrotation
							End Site
							{
								OFFSET 0.000000 32.263779 0.000000
							}
						}
						JOINT HairA
						{
							OFFSET -7.081100 24.428299 23.196600
							CHANNELS 3 Xrotation Yrotation Zrotation
							End Site
							{
								OFFSET 0.000000 32.263779 0.000000
							}
						}
						JOINT Hat
						{
							OFFSET 16.728800 15.048294 -15.439601
							CHANNELS 3 Xrotation Yrotation Zrotation
							End Site
							{
								OFFSET 0.000000 32.263779 0.000000
							}
						}
					}
				}
				JOINT LeftShoulder
				{
					OFFSET 6.197800 13.665199 -4.064700
					CHANNELS 3 Xrotation Yrotation Zrotation
					JOINT LeftArm
					{
						OFFSET 7.778100 -0.187103 -1.709300
						CHANNELS 3 Xrotation Yrotation Zrotation
						JOINT LeftForeArm
						{
							OFFSET 22.049376 0.000000 0.000000
							CHANNELS 3 Xrotation Yrotation Zrotation
							JOINT LeftHand
							{
								OFFSET 23.009392 0.000000 0.000000
								CHANNELS 3 Xrotation Yrotation Zrotation
								JOINT LeftHandThumb1
								{
									OFFSET 3.507191 -2.063065 3.133727
									CHANNELS 3 Xrotation Yrotation Zrotation
									JOINT LeftHandThumb2
									{
										OFFSET 3.101337 -1.790558 1.790558
										CHANNELS 3 Xrotation Yrotation Zrotation
										JOINT LeftHandThumb3
										{
											OFFSET 3.058640 -1.765907 1.765906
											CHANNELS 3 Xrotation Yrotation Zrotation
											End Site
											{
												OFFSET -0.415260 3.926476 -0.049563
											}
										}
									}
								}
								JOINT LeftHandIndex1
								{
									OFFSET 11.334419 -0.901459 3.706815
									CHANNELS 3 Xrotation Yrotation Zrotation
									JOINT LeftHandIndex2
									{
										OFFSET 3.283112 0.000000 0.000000
										CHANNELS 3 Xrotation Yrotation Zrotation
										JOINT LeftHandIndex3
										{
											OFFSET 3.323853 0.000000 0.000000
											CHANNELS 3 Xrotation Yrotation Zrotation
											End Site
											{
												OFFSET -1.135597 3.097809 0.402452
											}
										}
									}
								}
								JOINT LeftHandMiddle1
								{
									OFFSET 11.335861 0.000000 0.000000
									CHANNELS 3 Xrotation Yrotation Zrotation
									JOINT LeftHandMiddle2
									{
										OFFSET 3.410492 0.000000 0.000000
										CHANNELS 3 Xrotation Yrotation Zrotation
										JOINT LeftHandMiddle3
										{
											OFFSET 3.312172 0.000000 0.000000
											CHANNELS 3 Xrotation Yrotation Zrotation
											End Site
											{
												OFFSET -1.150200 3.080154 0.400270
											}
										}
									}
								}
								JOINT LeftHandRing1
								{
									OFFSET 11.514786 -0.013176 -3.003090
									CHANNELS 3 Xrotation Yrotation Zrotation
									JOINT LeftHandRing2
									{
										OFFSET 3.053307 0.000000 0.000000
										CHANNELS 3 Xrotation Yrotation Zrotation
										JOINT LeftHandRing3
										{
											OFFSET 3.295807 0.000000 0.000000
											CHANNELS 3 Xrotation Yrotation Zrotation
											End Site
											{
												OFFSET -1.281006 3.013344 0.375733
											}
										}
									}
								}
								JOINT LeftHandPinky1
								{
									OFFSET 10.518692 -0.960396 -5.730441
									CHANNELS 3 Xrotation Yrotation Zrotation
									JOINT LeftHandPinky2
									{
										OFFSET 2.861649 0.000000 0.000000
										CHANNELS 3 Xrotation Yrotation Zrotation
										JOINT LeftHandPinky3
										{
											OFFSET 2.863380 0.000000 0.000000
											CHANNELS 3 Xrotation Yrotation Zrotation
											End Site
											{
												OFFSET -0.843597 2.711159 0.369971
											}
										}
									}
								}
							}
							JOINT LSleeve
							{
								OFFSET 6.676277 -0.344902 -1.011730
								CHANNELS 3 Xrotation Yrotation Zrotation
								End Site
								{
									OFFSET 0.000000 14.885353 0.000000
								}
							}
						}
					}
				}
				JOINT RightShoulder
				{
					OFFSET -6.197800 13.665199 -4.064700
					CHANNELS 3 Xrotation Yrotation Zrotation
					JOINT RightArm
					{
						OFFSET -7.778100 -0.187103 -1.709300
						CHANNELS 3 Xrotation Yrotation Zrotation
						JOINT RightForeArm
						{
							OFFSET -22.049376 0.000000 0.000000
							CHANNELS 3 Xrotation Yrotation Zrotation
							JOINT RightHand
							{
								OFFSET -23.009392 0.000000 0.000000
								CHANNELS 3 Xrotation Yrotation Zrotation
								JOINT RightHandThumb1
								{
									OFFSET -3.507191 -2.063065 3.133727
									CHANNELS 3 Xrotation Yrotation Zrotation
									JOINT RightHandThumb2
									{
										OFFSET -3.101337 -1.790558 1.790558
										CHANNELS 3 Xrotation Yrotation Zrotation
										JOINT RightHandThumb3
										{
											OFFSET -3.058640 -1.765907 1.765906
											CHANNELS 3 Xrotation Yrotation Zrotation
											End Site
											{
												OFFSET 0.415260 3.926476 -0.049563
											}
										}
									}
								}
								JOINT RightHandIndex1
								{
									OFFSET -11.334419 -0.901459 3.706815
									CHANNELS 3 Xrotation Yrotation Zrotation
									JOINT RightHandIndex2
									{
										OFFSET -3.283112 0.000000 0.000000
										CHANNELS 3 Xrotation Yrotation Zrotation
										JOINT RightHandIndex3
										{
											OFFSET -3.323853 0.000000 0.000000
											CHANNELS 3 Xrotation Yrotation Zrotation
											End Site
											{
												OFFSET 1.135597 3.097809 0.402452
											}
										}
									}
								}
								JOINT RightHandMiddle1
								{
									OFFSET -11.335861 0.000000 0.000000
									CHANNELS 3 Xrotation Yrotation Zrotation
									JOINT RightHandMiddle2
									{
										OFFSET -3.410492 0.000000 0.000000
										CHANNELS 3 Xrotation Yrotation Zrotation
										JOINT RightHandMiddle3
										{
											OFFSET -3.312172 0.000000 0.000000
											CHANNELS 3 Xrotation Yrotation Zrotation
											End Site
											{
												OFFSET 1.150200 3.080154 0.400270
											}
										}
									}
								}
								JOINT RightHandRing1
								{
									OFFSET -11.514786 -0.013176 -3.003090
									CHANNELS 3 Xrotation Yrotation Zrotation
									JOINT RightHandRing2
									{
										OFFSET -3.053307 0.000000 0.000000
										CHANNELS 3 Xrotation Yrotation Zrotation
										JOINT RightHandRing3
										{
											OFFSET -3.295807 0.000000 0.000000
											CHANNELS 3 Xrotation Yrotation Zrotation
											End Site
											{
												OFFSET 1.281006 3.013344 0.375733
											}
										}
									}
								}
								JOINT RightHandPinky1
								{
									OFFSET -10.518692 -0.960396 -5.730441
									CHANNELS 3 Xrotation Yrotation Zrotation
									JOINT RightHandPinky2
									{
										OFFSET -2.861649 0.000000 0.000000
										CHANNELS 3 Xrotation Yrotation Zrotation
										JOINT RightHandPinky3
										{
											OFFSET -2.863380 0.000000 0.000000
											CHANNELS 3 Xrotation Yrotation Zrotation
											End Site
											{
												OFFSET 0.843597 2.711159 0.369971
											}
										}
									}
								}
							}
							JOINT RSleeve
							{
								OFFSET -6.676277 -0.344902 -1.011730
								CHANNELS 3 Xrotation Yrotation Zrotation
								End Site
								{
									OFFSET 0.000000 14.885353 0.000000
								}
							}
						}
					}
				}
				JOINT Backpack
				{
					OFFSET 0.000000 -2.471497 36.677502
					CHANNELS 3 Xrotation Yrotation Zrotation
					End Site
					{
						OFFSET 0.000000 20.427315 0.000000
					}
				}
				JOINT Hood
				{
					OFFSET 0.000000 18.754097 -10.431000
					CHANNELS 3 Xrotation Yrotation Zrotation
					JOINT Hood1
					{
						OFFSET 0.000000 -5.011002 -7.685901
						CHANNELS 3 Xrotation Yrotation Zrotation
						End Site
						{
							OFFSET 0.000000 9.175140 0.000000
						}
					}
				}
				JOINT LHoodieString
				{
					OFFSET 5.250500 16.397697 3.089900
					CHANNELS 3 Xrotation Yrotation Zrotation
					JOINT LHoodieString1
					{
						OFFSET 0.257700 -6.364304 3.694600
						CHANNELS 3 Xrotation Yrotation Zrotation
						JOINT LHoodieString2
						{
							OFFSET 0.000000 -9.643799 2.679100
							CHANNELS 3 Xrotation Yrotation Zrotation
							End Site
							{
								OFFSET 0.000000 10.009018 0.000000
							}
						}
					}
				}
				JOINT RHoodieString
				{
					OFFSET -5.250500 16.397697 3.089900
					CHANNELS 3 Xrotation Yrotation Zrotation
					JOINT RHoodieString1
					{
						OFFSET -0.257700 -6.364304 3.694600
						CHANNELS 3 Xrotation Yrotation Zrotation
						JOINT RHoodieString2
						{
							OFFSET 0.000000 -9.643799 2.679100
							CHANNELS 3 Xrotation Yrotation Zrotation
							End Site
							{
								OFFSET 0.000000 10.009018 0.000000
							}
						}
					}
				}
			}
			JOINT LBackpack_Strap
			{
				OFFSET 15.223200 -7.719803 -6.610900
				CHANNELS 3 Xrotation Yrotation Zrotation
				End Site
				{
					OFFSET 0.000000 16.040596 0.000000
				}
			}
			JOINT RBackpack_Strap
			{
				OFFSET -15.223000 -7.719803 -6.610900
				CHANNELS 3 Xrotation Yrotation Zrotation
				End Site
				{
					OFFSET 0.000000 16.040596 0.000000
				}
			}
		}
	}
	JOINT BoyFacialAnim_Joint
	{
		OFFSET 1.000000 -82.208099 -1.550900
		CHANNELS 3 Xrotation Yrotation Zrotation
		End Site
		{
			OFFSET 0.000000 30.012791 0.000000
		}
	}
}
MOTION
Frames: 4
Frame Time: 0.033333
0.874919 48.663116 -0.512131 -0.557085 4.287476 -8.950545 0.000000 0.000000 0.000000 -80.610261 -12.405278 14.257441 115.731641 8.117086 3.444849 -31.898370 4.309902 -12.669543 0.000000 -0.000000 0.000000 0.000000 -0.000000 -0.000000 0.000000 -0.000002 -0.000001 -61.233834 11.000145 -24.529513 105.753205 0.129851 -0.833754 -26.758026 -8.099637 27.103490 0.000000 0.000001 -0.000000 0.000000 0.000001 -0.000000 0.000001 0.000001 0.000002 4.045023 3.606888 -2.185454 8.251219 6.772764 -4.728797 8.251221 6.772761 -4.728795 -1.987030 28.311194 6.773740 5.084079 36.051863 -22.849326 0.000003 0.000000 -0.000000 0.000003 0.000000 -0.000000 0.000003 0.000000 -0.000000 1.031711 -15.322951 -11.643481 3.056746 -0.694193 -32.025343 40.097650 -33.388229 -1.908144 12.866407 10.638253 2.322217 -9.430036 -10.455472 8.418430 2.321212 6.714828 2.171008 0.000003 -0.000000 -0.000000 -1.240366 -9.026436 -4.969600 -0.126868 0.207698 -21.714510 0.000000 0.000001 -0.000002 1.299832 -1.018896 -8.079540 -0.178477 -0.773415 -14.430224 0.000004 0.000001 -0.000001 -0.369360 2.946017 -4.498427 -0.505494 -2.597452 -30.199599 -0.000003 0.000001 -0.000004 0.026886 5.964715 0.716861 -0.699269 -5.770445 -39.699430 0.000001 0.000003 0.000000 -0.000000 0.000000 -0.000000 3.185208 -18.297141 12.806523 12.807460 -13.875021 59.330500 29.940827 40.956936 -3.738851 19.089463 -1.945282 12.311444 -7.843385 4.773230 -9.669448 -0.642134 -0.094298 -1.289446 0.000001 0.000002 0.000001 -1.233787 0.596119 8.695282 0.120482 -1.119667 16.859863 0.000000 0.000000 0.000004 -1.142499 -1.773359 0.545492 -0.357931 1.142251 22.116077 -0.000004 0.000002 -0.000002 1.911433 -0.142583 -2.803086 -0.619938 3.110094 28.344853 -0.000001 0.000000 0.000000 4.769101 -2.272394 -7.778830 -1.320462 7.677243 37.620289 -0.000001 0.000001 0.000002 -0.000000 0.000001 0.000001 0.000001 -0.000001 -0.000002 0.000001 -0.000001 -0.000002 0.000001 -0.000001 -0.000002 0.000001 -0.000001 -0.000002 0.000001 -0.000001 -0.000001 -0.000000 0.000000 -0.000000 0.000001 -0.000001 -0.000002 0.000001 -0.000001 -0.000001 -0.000000 0.000000 -0.000000 0.000002 0.000000 -0.000002 0.000002 0.000000 -0.000002 0.000000 0.000000 0.000000 
0.688254 48.703865 -0.624345 0.423429 5.473499 -9.979869 -0.000000 -0.000000 0.000001 -82.621267 -12.657387 13.957281 115.423449 7.893912 4.179203 -31.149320 3.545819 -12.133496 -0.000000 -0.000000 0.000000 -0.000000 -0.000000 0.000000 0.000001 0.000000 0.000000 -61.420654 10.017635 -24.040905 105.655042 -1.232112 -0.688439 -26.736070 -8.211577 27.960231 0.000000 0.000002 0.000000 0.000000 0.000002 0.000000 0.000001 -0.000000 -0.000001 4.062541 3.446849 -2.014304 8.270848 6.413061 -4.416907 8.270857 6.413059 -4.416917 -2.008895 28.038857 6.875568 3.930237 35.666551 -22.264072 -0.000002 0.000000 -0.000000 -0.000002 0.000000 -0.000000 -0.000002 0.000000 -0.000000 0.933851 -15.235550 -11.997156 3.099396 -0.694583 -31.882538 40.083867 -34.672082 -1.542212 12.162005 12.029502 3.297858 -9.480630 -9.796253 8.543604 3.182274 6.532154 2.124975 -0.000001 -0.000000 0.000000 -0.977099 -9.194083 -4.577089 -0.134912 0.204591 -21.864523 -0.000002 -0.000000 -0.000004 1.438176 -0.833137 -6.924128 -0.189789 -0.789250 -14.621222 0.000000 -0.000001 0.000000 -0.424884 2.856984 -5.702064 -0.506927 -2.612028 -30.378810 0.000003 -0.000000 -0.000000 0.030916 6.430598 0.021254 -0.695796 -5.792244 -39.973959 0.000003 0.000000 -0.000000 0.000003 0.000000 0.000000 3.209003 -17.990761 12.920075 12.430133 -13.444436 59.151542 29.944051 40.804373 -3.723794 19.086036 -1.869411 12.184493 -7.077157 5.101191 -9.044264 -0.878094 -0.429027 -1.535463 -0.000001 0.000000 -0.000000 -1.448712 0.525312 10.036617 0.060077 -1.062345 17.445140 -0.000001 0.000001 0.000002 -1.192081 -1.762797 1.323539 -0.385792 1.159006 22.376422 0.000002 0.000003 0.000002 1.786900 -0.088593 -1.660042 -0.617461 3.118410 28.420793 0.000001 -0.000000 0.000004 4.708652 -1.790525 -6.398276 -1.314751 7.703647 37.870599 0.000001 -0.000000 0.000000 0.000001 0.000001 -0.000001 -0.000000 0.000000 0.000002 -0.000000 0.000000 0.000002 -0.000000 0.000000 0.000002 -0.000000 0.000000 0.000002 -0.000000 0.000000 0.000002 -0.000000 0.000000 0.000002 -0.000000 0.000000 0.000002 -0.000000 0.000000 0.000002 -0.000000 0.000000 0.000002 0.000001 0.000000 0.000001 0.000001 0.000000 0.000001 -0.000000 -0.000000 0.000001 
0.395044 48.778061 -0.811501 1.633867 7.485795 -11.552648 -0.000000 0.000001 0.000000 -85.482748 -12.620569 13.448198 114.888194 7.373064 5.469848 -29.958685 2.346013 -11.040975 0.000000 0.000000 -0.000000 0.000000 0.000000 -0.000000 0.000002 0.000002 -0.000000 -61.409418 8.197473 -23.723248 105.507851 -2.793624 -0.483266 -26.777658 -8.510424 28.854981 -0.000000 0.000001 -0.000000 -0.000000 0.000001 -0.000000 -0.000003 -0.000002 -0.000003 4.153885 3.194451 -1.786687 8.432636 5.839449 -4.006460 8.432644 5.839452 -4.006465 -2.444805 27.473026 6.910047 1.788168 34.846946 -20.947507 -0.000000 0.000000 0.000000 -0.000000 0.000000 0.000000 -0.000000 0.000000 0.000000 0.578498 -15.163703 -13.504679 2.578587 -1.109452 -30.570028 39.389079 -34.959401 -1.656721 10.837020 13.165077 4.652105 -9.150609 -9.559088 8.619063 3.717551 6.463579 2.091846 0.000001 -0.000001 0.000000 -0.813949 -9.281054 -4.866110 -0.151437 0.201982 -22.712899 -0.000000 -0.000001 -0.000002 1.491170 -0.786260 -7.097243 -0.226232 -0.862368 -15.534229 0.000004 0.000001 -0.000001 -0.466301 2.850061 -7.082969 -0.543703 -2.694623 -31.471719 0.000002 0.000003 -0.000003 0.034535 6.737266 -1.354600 -0.760062 -5.890084 -41.007353 0.000000 0.000001 0.000005 0.000001 0.000000 0.000000 3.176981 -17.216462 12.995179 11.951737 -12.767532 58.924336 30.161467 40.414718 -3.527139 19.305559 -1.208830 11.855287 -6.358011 5.533792 -8.537946 -0.958596 -0.860569 -1.746068 0.000003 0.000001 0.000002 -1.590487 0.673782 10.753841 -0.012129 -0.986165 17.337957 0.000001 -0.000001 0.000003 -1.210394 -1.696668 1.846128 -0.420733 1.182140 22.793979 0.000001 0.000000 -0.000000 1.680994 -0.205569 -0.606554 -0.619639 3.142363 28.646543 -0.000000 0.000002 0.000001 4.617789 -1.836566 -4.973698 -1.325294 7.751401 38.224880 0.000001 -0.000003 0.000002 0.000000 -0.000000 -0.000002 -0.000000 0.000000 -0.000000 -0.000000 0.000000 -0.000000 -0.000000 0.000000 -0.000000 -0.000000 0.000000 -0.000000 -0.000000 0.000000 -0.000000 -0.000000 -0.000001 0.000002 -0.000000 0.000000 -0.000000 -0.000000 0.000000 -0.000000 -0.000000 -0.000001 0.000002 0.000000 0.000001 0.000001 0.000000 0.000001 0.000001 -0.000000 0.000001 0.000000 
0.017658 48.911163 -0.945361 3.045278 10.547102 -13.272573 -0.000000 -0.000000 0.000000 -88.808872 -12.024762 12.948996 114.217347 5.711193 6.641557 -28.498396 0.726909 -8.799919 0.000000 0.000000 0.000000 0.000000 0.000000 0.000000 0.000002 -0.000000 -0.000000 -60.835860 5.836674 -24.025566 105.367744 -4.561496 -0.240243 -27.077848 -8.975283 29.964634 -0.000000 -0.000001 0.000000 -0.000000 -0.000001 0.000000 -0.000001 0.000002 0.000000 4.281427 2.905338 -1.669751 8.670947 5.164116 -3.809486 8.670938 5.164111 -3.809480 -3.430348 26.595807 6.777378 -1.319437 33.372468 -18.756635 0.000001 0.000000 -0.000000 0.000001 0.000000 -0.000000 0.000001 0.000000 -0.000000 0.576654 -15.160927 -14.362134 1.120382 -2.777936 -28.851238 37.670033 -33.674089 -2.419539 8.946365 13.724105 6.234182 -8.530215 -9.465938 8.601135 4.209402 6.441787 2.062236 -0.000001 0.000001 0.000001 -0.665721 -9.363596 -5.631110 -0.169818 0.203043 -24.197250 0.000002 -0.000001 -0.000002 1.521459 -0.817006 -8.121635 -0.282603 -0.983228 -17.066025 -0.000002 -0.000001 0.000002 -0.511396 2.850330 -8.954295 -0.620685 -2.840351 -33.453778 0.000000 0.000000 0.000001 0.032594 6.978552 -3.517998 -0.893667 -6.061083 -42.880788 -0.000001 0.000001 -0.000004 0.000001 0.000001 -0.000000 2.903787 -16.144221 12.532544 11.945126 -11.788456 59.594261 30.845162 40.510552 -3.423985 19.626306 -0.025502 11.566931 -5.670090 6.174628 -8.012370 -0.990797 -1.362839 -1.947662 0.000002 0.000000 0.000001 -1.747210 0.962663 11.396907 -0.099927 -0.884848 16.630245 0.000000 -0.000000 0.000002 -1.228709 -1.579495 2.412212 -0.464712 1.216818 23.426977 0.000003 -0.000001 0.000001 1.576117 -0.377345 0.728626 -0.628633 3.181567 29.025767 0.000003 0.000001 0.000001 4.510669 -2.128748 -3.152712 -1.355095 7.825988 38.763929 0.000004 -0.000002 -0.000000 0.000003 0.000000 -0.000000 -0.000000 0.000000 0.000001 -0.000000 0.000000 0.000001 -0.000000 0.000000 0.000001 -0.000000 0.000000 0.000001 -0.000000 0.000000 -0.000001 -0.000000 0.000000 -0.000000 -0.000000 0.000000 0.000001 -0.000000 0.000000 -0.000001 -0.000000 0.000000 -0.000000 0.000001 0.000001 -0.000000 0.000001 0.000001 -0.000000 -0.000000 -0.000000 0.000000 
